<?xml version="1.0" standalone="no"?>
<!DOCTYPE svg PUBLIC "-//W3C//DTD SVG 20010904//EN"
 "http://www.w3.org/TR/2001/REC-SVG-20010904/DTD/svg10.dtd">
<svg version="1.0" xmlns="http://www.w3.org/2000/svg"
 width="1078.000000pt" height="1280.000000pt" viewBox="0 0 1078.000000 1280.000000"
 preserveAspectRatio="xMidYMid meet">
<g transform="translate(0.000000,1280.000000) scale(0.100000,-0.100000)"
fill="#000000" stroke="none">
<path d="M4875 12789 c-325 -30 -664 -127 -973 -278 -414 -204 -704 -428
-1152 -891 -1091 -1129 -1840 -1604 -2267 -1442 -27 10 -76 37 -109 61 -32 23
-87 62 -122 86 -56 40 -70 45 -116 45 -118 0 -169 -107 -107 -228 104 -204
431 -381 736 -399 245 -14 589 79 910 246 368 191 641 399 1344 1024 565 502
857 722 1156 868 382 186 703 228 1120 143 553 -112 1082 -455 1499 -972 32
-40 57 -74 55 -75 -2 -1 -56 -19 -119 -41 -283 -95 -560 -248 -820 -454 -132
-104 -407 -383 -522 -528 -427 -536 -733 -1216 -883 -1959 -60 -299 -89 -534
-106 -874 -20 -406 22 -923 115 -1429 l23 -127 -69 -80 c-164 -188 -267 -395
-323 -645 -9 -43 -19 -143 -22 -235 -8 -253 30 -437 137 -660 27 -55 72 -136
102 -180 66 -100 248 -283 351 -353 136 -94 335 -178 497 -212 l55 -11 94
-222 c168 -398 414 -884 618 -1221 46 -76 82 -140 81 -141 -2 -2 -50 5 -108
16 -481 84 -942 17 -1247 -180 -89 -58 -110 -82 -97 -115 13 -35 49 -29 119
19 310 212 795 273 1312 164 l102 -21 58 -87 c32 -47 59 -89 61 -92 1 -3 -44
-9 -100 -12 -369 -23 -712 -178 -1069 -484 -172 -149 -222 -216 -187 -251 24
-24 50 -10 130 69 297 296 646 495 968 553 118 21 232 29 290 21 46 -6 53 -11
99 -70 l50 -63 -81 -12 c-159 -23 -275 -80 -399 -198 -175 -165 -308 -432
-374 -749 -12 -59 -12 -71 1 -90 17 -26 46 -30 64 -8 7 8 21 54 32 102 41 186
124 392 214 530 21 32 74 94 119 139 126 125 260 184 423 184 l83 0 61 -67
c253 -277 503 -454 722 -514 157 -42 326 -24 493 51 161 73 378 247 558 447
54 59 107 112 119 116 35 15 183 -2 264 -29 101 -34 154 -66 240 -148 154
-146 277 -392 341 -681 23 -106 45 -131 86 -101 25 18 22 57 -14 197 -62 242
-174 467 -300 604 -138 151 -290 230 -483 252 l-67 8 45 60 c27 35 56 63 72
68 45 14 271 -1 377 -24 312 -67 634 -252 910 -524 59 -58 111 -105 117 -105
24 0 48 23 48 45 0 31 -100 138 -230 247 -264 222 -573 380 -846 434 -43 9
-134 19 -201 22 l-122 7 57 87 57 86 85 21 c534 129 1027 73 1370 -156 56 -37
72 -43 88 -34 52 28 34 67 -56 125 -176 114 -362 177 -615 211 -205 26 -455
16 -696 -30 -46 -9 -85 -14 -88 -12 -2 3 22 47 53 98 116 192 230 402 379 704
135 273 290 609 309 671 5 16 18 23 49 28 62 10 236 70 309 107 383 192 647
539 740 972 29 137 31 399 5 532 -51 249 -173 504 -319 663 -24 27 -37 49 -34
60 12 40 67 340 90 492 56 360 76 612 76 935 0 819 -168 1582 -499 2270 -461
957 -1204 1627 -2027 1829 l-70 17 -43 95 c-91 198 -279 452 -491 664 -584
584 -1344 955 -2090 1020 -133 11 -345 11 -475 -1z"/>
</g>
</svg>
