<?xml version="1.0" encoding="utf-8"?>
<!-- Svg Vector Icons : http://www.onlinewebfonts.com/icon -->
<!DOCTYPE svg PUBLIC "-//W3C//DTD SVG 1.1//EN" "http://www.w3.org/Graphics/SVG/1.1/DTD/svg11.dtd">
<svg version="1.1" xmlns="http://www.w3.org/2000/svg" xmlns:xlink="http://www.w3.org/1999/xlink" x="0px" y="0px" viewBox="0 0 1000 1000" enable-background="new 0 0 1000 1000" xml:space="preserve">
<g><path d="M803.2,225.3C709.9,184,608,163.1,499.9,163.2c-108-0.1-217.2,22.4-303.3,61.2c-16.2,7.2-30.6,19.6-20.3,42.6s323.5,723,323.5,723l322.9-721.6C829.1,253.4,824.4,234.8,803.2,225.3z M360,360c-38.7,0-70-31.3-70-70c0-38.7,31.3-70,70-70c38.7,0,70,31.3,70,70S398.6,360,360,360z M499.9,681.5c-38.7,0-70-31.3-70-70s31.3-70,70-70c38.7,0,70,31.3,70,70S538.6,681.5,499.9,681.5z M639.9,430c-38.7,0-70-31.3-70-70c0-38.7,31.3-70,70-70c38.7,0,70,31.3,70,70C709.9,398.7,678.6,430,639.9,430z"/><path d="M862.7,84.4C758.1,39.3,628.9,10.1,500,10C371,10,244.1,36.5,137.2,83.2c-9.5,4.1-22.2,12.2-22.2,30.1c0,5.5,2,10.8,2,10.8l17.5,42c5.5,10.6,17.4,17.9,30.2,17.9c3.6,0,8.6-0.7,14.5-3.2c98.2-41.4,206.7-64.7,320.8-64.7c114.1-0.1,231.1,25.5,320.8,64.7c7.2,3.1,11.3,3.2,14.6,3.2c13.1,0,24.4-7.2,30-17.6l17.6-42.3c1.3-3.4,2.1-7.2,2.1-10.4C885,97.5,875.4,89.9,862.7,84.4z"/></g>
</svg>